<svg xmlns="http://www.w3.org/2000/svg" viewBox="0 0 100 100">
  <path d="M19.00,50.00 a31.00,31.00 0 1,0 62.00,0 a31.00,31.00 0 1,0 -62.00,0" fill="none" stroke="#34D399" stroke-opacity="0.2" stroke-width="0.7" stroke-linecap="round" />
  <path d="M79.00,50.00 L81.00,50.00 M78.01,57.51 L79.94,58.02 M75.11,64.50 L76.85,65.50 M70.51,70.51 L71.92,71.92 M64.50,75.11 L65.50,76.85 M57.51,78.01 L58.02,79.94 M50.00,79.00 L50.00,81.00 M42.49,78.01 L41.98,79.94 M35.50,75.11 L34.50,76.85 M29.49,70.51 L28.08,71.92 M24.89,64.50 L23.15,65.50 M21.99,57.51 L20.06,58.02 M21.00,50.00 L19.00,50.00 M21.99,42.49 L20.06,41.98 M24.89,35.50 L23.15,34.50 M29.49,29.49 L28.08,28.08 M35.50,24.89 L34.50,23.15 M42.49,21.99 L41.98,20.06 M50.00,21.00 L50.00,19.00 M57.51,21.99 L58.02,20.06 M64.50,24.89 L65.50,23.15 M70.51,29.49 L71.92,28.08 M75.11,35.50 L76.85,34.50 M78.01,42.49 L79.94,41.98" fill="none" stroke="#34D399" stroke-opacity="0.122" stroke-width="0.7" stroke-linecap="round" />
  <path d="M80.53,44.62 A31.00,31.00 0 0,1 60.60,79.13" fill="none" stroke="#6EE7B7" stroke-width="2.2" stroke-linecap="round" />
  <path d="M19.47,55.38 A31.00,31.00 0 0,1 30.07,26.25" fill="none" stroke="#34D399" stroke-width="2.2" stroke-linecap="round" />
  <path d="M22.50,50.00 a27.50,27.50 0 1,0 55.00,0 a27.50,27.50 0 1,0 -55.00,0" fill="none" stroke="#34D399" stroke-opacity="0.122" stroke-width="0.5" stroke-linecap="round" />
</svg>
